<svg width="286" height="286" viewBox="0 0 286 286" fill="none" xmlns="http://www.w3.org/2000/svg">
<path d="M143 41.7083C191.367 41.7083 232.375 82.5589 232.375 132.119C232.375 182.468 190.7 217.801 152.206 241.827C149.4 243.442 146.228 244.292 143 244.292C139.772 244.292 136.6 243.442 133.794 241.827C95.3721 217.566 53.625 182.642 53.625 132.119C53.625 82.5589 94.6326 41.7083 143 41.7083Z" fill="white" stroke="white" stroke-width="15"/>
<path d="M252.248 83.4167C265.472 113.735 265.472 148.432 252.248 178.75M33.751 178.75C20.5273 148.432 20.5273 113.735 33.751 83.4167" stroke="white" stroke-width="15" stroke-linecap="round" stroke-linejoin="round"/>
<path d="M178.75 131.083C178.75 150.828 162.745 166.833 143 166.833C123.255 166.833 107.25 150.828 107.25 131.083C107.25 111.339 123.255 95.3333 143 95.3333C162.745 95.3333 178.75 111.339 178.75 131.083Z" fill="black" stroke="black" stroke-width="15"/>
</svg>
