<svg width="286" height="286" viewBox="0 0 286 286" fill="none" xmlns="http://www.w3.org/2000/svg">
<path d="M68.852 190.667C55.6028 198.206 47.6667 207.809 47.6667 218.263C47.6667 242.51 90.3489 262.167 143 262.167C195.651 262.167 238.333 242.51 238.333 218.263C238.333 207.809 230.397 198.206 217.148 190.667" stroke="white" stroke-width="17.875" stroke-linecap="round"/>
<path d="M154.894 83.4167H131.106C96.9059 83.4167 73.8478 119.99 87.3198 152.867C89.1965 157.448 93.5022 160.416 98.2664 160.416H106.644C109.467 160.416 111.928 162.427 112.613 165.291L123.398 210.409C125.647 219.817 133.729 226.417 143 226.417C152.271 226.417 160.353 219.817 162.602 210.409L173.386 165.291C174.072 162.427 176.534 160.416 179.357 160.416H187.734C192.498 160.416 196.804 157.448 198.681 152.867C212.153 119.99 189.094 83.4167 154.894 83.4167Z" stroke="white" stroke-width="17.875"/>
<path d="M172.792 53.6249C172.792 70.0784 159.453 83.4166 143 83.4166C126.547 83.4166 113.208 70.0784 113.208 53.6249C113.208 37.1715 126.547 23.8333 143 23.8333C159.453 23.8333 172.792 37.1715 172.792 53.6249Z" stroke="white" stroke-width="17.875"/>
</svg>
