<svg width="286" height="286" viewBox="0 0 286 286" fill="none" xmlns="http://www.w3.org/2000/svg">
<path d="M29.7917 143C29.7917 89.6332 29.7917 62.9498 46.3707 46.3707C62.9498 29.7917 89.6332 29.7917 143 29.7917C196.366 29.7917 223.05 29.7917 239.63 46.3707C256.208 62.9498 256.208 89.6332 256.208 143C256.208 196.366 256.208 223.05 239.63 239.63C223.05 256.208 196.366 256.208 143 256.208C89.6332 256.208 62.9498 256.208 46.3707 239.63C29.7917 223.05 29.7917 196.366 29.7917 143Z" stroke="white" stroke-width="12"/>
<path d="M143 95.3333V190.667" stroke="white" stroke-width="12" stroke-linecap="round" stroke-linejoin="round"/>
<path d="M107.25 119.167V166.833" stroke="white" stroke-width="12" stroke-linecap="round" stroke-linejoin="round"/>
<path d="M71.5 131.083V154.917" stroke="white" stroke-width="12" stroke-linecap="round" stroke-linejoin="round"/>
<path d="M178.75 119.167V166.833" stroke="white" stroke-width="12" stroke-linecap="round" stroke-linejoin="round"/>
<path d="M214.5 131.083V154.917" stroke="white" stroke-width="12" stroke-linecap="round" stroke-linejoin="round"/>
</svg>
